<?plantuml 1.2026.2beta3?><svg xmlns="http://www.w3.org/2000/svg" xmlns:xlink="http://www.w3.org/1999/xlink" contentStyleType="text/css" data-diagram-type="ACTIVITY" height="1219px" preserveAspectRatio="none" style="width:642px;height:1219px;background:#FFFFFF;" version="1.1" viewBox="0 0 642 1219" width="642px" zoomAndPan="magnify"><title>Iteranium Customer Journey - Iterative Engagement Model</title><defs/><g><g class="title" data-source-line="1"><text fill="#000000" font-family="sans-serif" font-size="14" font-weight="bold" lengthAdjust="spacing" textLength="463.2646" x="88.3496" y="32.9951">Iteranium Customer Journey - Iterative Engagement Model</text></g><ellipse cx="200.9448" cy="57.2969" fill="#222222" rx="10" ry="10" style="stroke:#222222;stroke-width:1;"/><path d="M299.5024,84.1484 L299.5024,100.2813 L279.5024,104.2813 L299.5024,108.2813 L299.5024,124.4141 A0,0 0 0 0 299.5024,124.4141 L516.9497,124.4141 A0,0 0 0 0 516.9497,124.4141 L516.9497,94.1484 L506.9497,84.1484 L299.5024,84.1484 A0,0 0 0 0 299.5024,84.1484" fill="#FEFFDD" style="stroke:#181818;stroke-width:0.5;"/><path d="M506.9497,84.1484 L506.9497,94.1484 L516.9497,94.1484 L506.9497,84.1484" fill="#FEFFDD" style="stroke:#181818;stroke-width:0.5;"/><text fill="#000000" font-family="sans-serif" font-size="13" lengthAdjust="spacing" textLength="184.7866" x="305.5024" y="101.2153">Client approaches Iteranium</text><text fill="#000000" font-family="sans-serif" font-size="13" lengthAdjust="spacing" textLength="196.4473" x="305.5024" y="116.3481">with a challenge, idea, or goal</text><rect fill="#F9FAFB" height="33.9688" rx="12.5" ry="12.5" style="stroke:#2C3E50;stroke-width:0.5;" width="157.1152" x="122.3872" y="87.2969"/><text fill="#000000" font-family="sans-serif" font-size="12" lengthAdjust="spacing" textLength="137.1152" x="132.3872" y="108.4355">Initial Contact / Inquiry</text><path d="M350.4468,134.4141 L350.4468,165.6797 L330.4468,169.6797 L350.4468,173.6797 L350.4468,204.9453 A0,0 0 0 0 350.4468,204.9453 L608.5317,204.9453 A0,0 0 0 0 608.5317,204.9453 L608.5317,144.4141 L598.5317,134.4141 L350.4468,134.4141 A0,0 0 0 0 350.4468,134.4141" fill="#FEFFDD" style="stroke:#181818;stroke-width:0.5;"/><path d="M598.5317,134.4141 L598.5317,144.4141 L608.5317,144.4141 L598.5317,134.4141" fill="#FEFFDD" style="stroke:#181818;stroke-width:0.5;"/><text fill="#000000" font-family="sans-serif" font-size="13" lengthAdjust="spacing" textLength="237.085" x="356.4468" y="151.481">High-level discussion to understand:</text><text fill="#000000" font-family="sans-serif" font-size="13" lengthAdjust="spacing" textLength="119.5073" x="356.4468" y="166.6138">- Business context</text><text fill="#000000" font-family="sans-serif" font-size="13" lengthAdjust="spacing" textLength="104.7554" x="356.4468" y="181.7466">- Problem space</text><text fill="#000000" font-family="sans-serif" font-size="13" lengthAdjust="spacing" textLength="141.1528" x="356.4468" y="196.8794">- Mutual expectations</text><rect fill="#F9FAFB" height="33.9688" rx="12.5" ry="12.5" style="stroke:#2C3E50;stroke-width:0.5;" width="259.0039" x="71.4429" y="152.6953"/><text fill="#000000" font-family="sans-serif" font-size="12" lengthAdjust="spacing" textLength="239.0039" x="81.4429" y="173.834">Context Understanding &amp; Fit Discussion</text><polygon fill="#F9FAFB" points="167.9038,224.9453,233.9858,224.9453,245.9858,236.9453,233.9858,248.9453,167.9038,248.9453,155.9038,236.9453,167.9038,224.9453" style="stroke:#2C3E50;stroke-width:0.5;"/><text fill="#000000" font-family="sans-serif" font-size="12" lengthAdjust="spacing" textLength="66.082" x="167.9038" y="241.0996">Mutual Fit?</text><text fill="#000000" font-family="sans-serif" font-size="11" lengthAdjust="spacing" textLength="19.2178" x="136.686" y="234.3511">Yes</text><text fill="#000000" font-family="sans-serif" font-size="11" lengthAdjust="spacing" textLength="14.9585" x="245.9858" y="234.3511">No</text><rect fill="#F9FAFB" height="33.9688" rx="12.5" ry="12.5" style="stroke:#2C3E50;stroke-width:0.5;" width="153.2129" x="11" y="258.9453"/><text fill="#000000" font-family="sans-serif" font-size="12" lengthAdjust="spacing" textLength="133.2129" x="21" y="280.084">Engagement Initiation</text><rect fill="#F9FAFB" height="33.9688" rx="12.5" ry="12.5" style="stroke:#2C3E50;stroke-width:0.5;" width="260.1406" x="184.2129" y="258.9453"/><text fill="#000000" font-family="sans-serif" font-size="12" lengthAdjust="spacing" textLength="240.1406" x="194.2129" y="280.084">Provide Direction / Decline Engagement</text><ellipse cx="314.2832" cy="323.9141" fill="none" rx="11" ry="11" style="stroke:#222222;stroke-width:1;"/><ellipse cx="314.2832" cy="323.9141" fill="#222222" rx="6" ry="6" style="stroke:#222222;stroke-width:1;"/><path d="M377.0249,388.9141 L377.0249,420.1797 L357.0249,424.1797 L377.0249,428.1797 L377.0249,459.4453 A0,0 0 0 0 377.0249,459.4453 L572.3442,459.4453 A0,0 0 0 0 572.3442,459.4453 L572.3442,398.9141 L562.3442,388.9141 L377.0249,388.9141 A0,0 0 0 0 377.0249,388.9141" fill="#FEFFDD" style="stroke:#181818;stroke-width:0.5;"/><path d="M562.3442,388.9141 L562.3442,398.9141 L572.3442,398.9141 L562.3442,388.9141" fill="#FEFFDD" style="stroke:#181818;stroke-width:0.5;"/><text fill="#000000" font-family="sans-serif" font-size="13" lengthAdjust="spacing" textLength="174.3193" x="383.0249" y="405.981">Iterative understanding of:</text><text fill="#000000" font-family="sans-serif" font-size="13" lengthAdjust="spacing" textLength="135.2939" x="383.0249" y="421.1138">- Business processes</text><text fill="#000000" font-family="sans-serif" font-size="13" lengthAdjust="spacing" textLength="161.4717" x="383.0249" y="436.2466">- Operational constraints</text><text fill="#000000" font-family="sans-serif" font-size="13" lengthAdjust="spacing" textLength="147.3228" x="383.0249" y="451.3794">- Existing technologies</text><rect fill="#F9FAFB" height="33.9688" rx="12.5" ry="12.5" style="stroke:#2C3E50;stroke-width:0.5;" width="312.1602" x="44.8647" y="407.1953"/><text fill="#000000" font-family="sans-serif" font-size="12" lengthAdjust="spacing" textLength="292.1602" x="54.8647" y="428.334">Process Understanding &amp; Current-State Mapping</text><path d="M356.0132,476.2969 L356.0132,492.4297 L336.0132,496.4297 L356.0132,500.4297 L356.0132,516.5625 A0,0 0 0 0 356.0132,516.5625 L604.9639,516.5625 A0,0 0 0 0 604.9639,516.5625 L604.9639,486.2969 L594.9639,476.2969 L356.0132,476.2969 A0,0 0 0 0 356.0132,476.2969" fill="#FEFFDD" style="stroke:#181818;stroke-width:0.5;"/><path d="M594.9639,476.2969 L594.9639,486.2969 L604.9639,486.2969 L594.9639,476.2969" fill="#FEFFDD" style="stroke:#181818;stroke-width:0.5;"/><text fill="#000000" font-family="sans-serif" font-size="13" lengthAdjust="spacing" textLength="202.2427" x="362.0132" y="493.3638">Objectives and success criteria</text><text fill="#000000" font-family="sans-serif" font-size="13" lengthAdjust="spacing" textLength="227.9507" x="362.0132" y="508.4966">refined as understanding improves</text><rect fill="#F9FAFB" height="33.9688" rx="12.5" ry="12.5" style="stroke:#2C3E50;stroke-width:0.5;" width="270.1367" x="65.8765" y="479.4453"/><text fill="#000000" font-family="sans-serif" font-size="12" lengthAdjust="spacing" textLength="250.1367" x="75.8765" y="500.584">Problem Framing &amp; Objective Refinement</text><path d="M320.6284,546.5625 L320.6284,577.8281 L300.6284,581.8281 L320.6284,585.8281 L320.6284,617.0938 A0,0 0 0 0 320.6284,617.0938 L514.2148,617.0938 A0,0 0 0 0 514.2148,617.0938 L514.2148,556.5625 L504.2148,546.5625 L320.6284,546.5625 A0,0 0 0 0 320.6284,546.5625" fill="#FEFFDD" style="stroke:#181818;stroke-width:0.5;"/><path d="M504.2148,546.5625 L504.2148,556.5625 L514.2148,556.5625 L504.2148,546.5625" fill="#FEFFDD" style="stroke:#181818;stroke-width:0.5;"/><text fill="#000000" font-family="sans-serif" font-size="13" lengthAdjust="spacing" textLength="153.5371" x="326.6284" y="563.6294">Iterative exploration of:</text><text fill="#000000" font-family="sans-serif" font-size="13" lengthAdjust="spacing" textLength="105.7202" x="326.6284" y="578.7622">- Design options</text><text fill="#000000" font-family="sans-serif" font-size="13" lengthAdjust="spacing" textLength="172.5864" x="326.6284" y="593.895">- Architectural approaches</text><text fill="#000000" font-family="sans-serif" font-size="13" lengthAdjust="spacing" textLength="137.6489" x="326.6284" y="609.0278">- Trade-offs and risks</text><rect fill="#F9FAFB" height="33.9688" rx="12.5" ry="12.5" style="stroke:#2C3E50;stroke-width:0.5;" width="199.3672" x="101.2612" y="564.8438"/><text fill="#000000" font-family="sans-serif" font-size="12" lengthAdjust="spacing" textLength="179.3672" x="111.2612" y="585.9824">Solution Exploration &amp; Design</text><rect fill="#F9FAFB" height="33.9688" rx="12.5" ry="12.5" style="stroke:#2C3E50;stroke-width:0.5;" width="176.6973" x="112.5962" y="637.0938"/><text fill="#000000" font-family="sans-serif" font-size="12" lengthAdjust="spacing" textLength="156.6973" x="122.5962" y="658.2324">Client Review &amp; Feedback</text><polygon fill="#F9FAFB" points="200.9448,354.9141,212.9448,366.9141,200.9448,378.9141,188.9448,366.9141,200.9448,354.9141" style="stroke:#2C3E50;stroke-width:0.5;"/><polygon fill="#F9FAFB" points="100.8696,691.0625,301.02,691.0625,313.02,703.0625,301.02,715.0625,100.8696,715.0625,88.8696,703.0625,100.8696,691.0625" style="stroke:#2C3E50;stroke-width:0.5;"/><text fill="#000000" font-family="sans-serif" font-size="12" lengthAdjust="spacing" textLength="200.1504" x="100.8696" y="707.2168">Shared Understanding Achieved?</text><text fill="#000000" font-family="sans-serif" font-size="11" lengthAdjust="spacing" textLength="14.9585" x="313.02" y="700.4683">No</text><path d="M332.397,725.0625 L332.397,756.3281 L312.397,760.3281 L332.397,764.3281 L332.397,795.5938 A0,0 0 0 0 332.397,795.5938 L596.5122,795.5938 A0,0 0 0 0 596.5122,795.5938 L596.5122,735.0625 L586.5122,725.0625 L332.397,725.0625 A0,0 0 0 0 332.397,725.0625" fill="#FEFFDD" style="stroke:#181818;stroke-width:0.5;"/><path d="M586.5122,725.0625 L586.5122,735.0625 L596.5122,735.0625 L586.5122,725.0625" fill="#FEFFDD" style="stroke:#181818;stroke-width:0.5;"/><text fill="#000000" font-family="sans-serif" font-size="13" lengthAdjust="spacing" textLength="243.1152" x="338.397" y="742.1294">Client and Iteranium share clarity on:</text><text fill="#000000" font-family="sans-serif" font-size="13" lengthAdjust="spacing" textLength="127.8101" x="338.397" y="757.2622">- Problem definition</text><text fill="#000000" font-family="sans-serif" font-size="13" lengthAdjust="spacing" textLength="118.4917" x="338.397" y="772.395">- Chosen direction</text><text fill="#000000" font-family="sans-serif" font-size="13" lengthAdjust="spacing" textLength="119.7739" x="338.397" y="787.5278">- Known trade-offs</text><rect fill="#F9FAFB" height="33.9688" rx="12.5" ry="12.5" style="stroke:#2C3E50;stroke-width:0.5;" width="222.9043" x="89.4927" y="743.3438"/><text fill="#000000" font-family="sans-serif" font-size="12" lengthAdjust="spacing" textLength="202.9043" x="99.4927" y="764.4824">Optimal Alignment Point Reached</text><path d="M321.7241,856.4453 L321.7241,872.5781 L301.7241,876.5781 L321.7241,880.5781 L321.7241,896.7109 A0,0 0 0 0 321.7241,896.7109 L534.144,896.7109 A0,0 0 0 0 534.144,896.7109 L534.144,866.4453 L524.144,856.4453 L321.7241,856.4453 A0,0 0 0 0 321.7241,856.4453" fill="#FEFFDD" style="stroke:#181818;stroke-width:0.5;"/><path d="M524.144,856.4453 L524.144,866.4453 L534.144,866.4453 L524.144,856.4453" fill="#FEFFDD" style="stroke:#181818;stroke-width:0.5;"/><text fill="#000000" font-family="sans-serif" font-size="13" lengthAdjust="spacing" textLength="154.4639" x="327.7241" y="873.5122">Iterative execution with</text><text fill="#000000" font-family="sans-serif" font-size="13" lengthAdjust="spacing" textLength="191.4199" x="327.7241" y="888.645">checkpoints and adjustments</text><rect fill="#F9FAFB" height="33.9688" rx="12.5" ry="12.5" style="stroke:#2C3E50;stroke-width:0.5;" width="201.5586" x="100.1655" y="859.5938"/><text fill="#000000" font-family="sans-serif" font-size="12" lengthAdjust="spacing" textLength="181.5586" x="110.1655" y="880.7324">Delivery Planning &amp; Execution</text><path d="M295.7905,913.5625 L295.7905,929.6953 L275.7905,933.6953 L295.7905,937.6953 L295.7905,953.8281 A0,0 0 0 0 295.7905,953.8281 L525.6284,953.8281 A0,0 0 0 0 525.6284,953.8281 L525.6284,923.5625 L515.6284,913.5625 L295.7905,913.5625 A0,0 0 0 0 295.7905,913.5625" fill="#FEFFDD" style="stroke:#181818;stroke-width:0.5;"/><path d="M515.6284,913.5625 L515.6284,923.5625 L525.6284,923.5625 L515.6284,913.5625" fill="#FEFFDD" style="stroke:#181818;stroke-width:0.5;"/><text fill="#000000" font-family="sans-serif" font-size="13" lengthAdjust="spacing" textLength="173.3926" x="301.7905" y="930.6294">Validate outcomes against</text><text fill="#000000" font-family="sans-serif" font-size="13" lengthAdjust="spacing" textLength="208.8379" x="301.7905" y="945.7622">agreed objectives and learnings</text><rect fill="#F9FAFB" height="33.9688" rx="12.5" ry="12.5" style="stroke:#2C3E50;stroke-width:0.5;" width="149.6914" x="126.0991" y="916.7109"/><text fill="#000000" font-family="sans-serif" font-size="12" lengthAdjust="spacing" textLength="129.6914" x="136.0991" y="937.8496">Validation &amp; Learning</text><rect fill="#F9FAFB" height="33.9688" rx="12.5" ry="12.5" style="stroke:#2C3E50;stroke-width:0.5;" width="175.7422" x="113.0737" y="973.8281"/><text fill="#000000" font-family="sans-serif" font-size="12" lengthAdjust="spacing" textLength="155.7422" x="123.0737" y="994.9668">Adjustment &amp; Refinement</text><polygon fill="#F9FAFB" points="200.9448,815.5938,212.9448,827.5938,200.9448,839.5938,188.9448,827.5938,200.9448,815.5938" style="stroke:#2C3E50;stroke-width:0.5;"/><polygon fill="#F9FAFB" points="137.0103,1027.7969,264.8794,1027.7969,276.8794,1039.7969,264.8794,1051.7969,137.0103,1051.7969,125.0103,1039.7969,137.0103,1027.7969" style="stroke:#2C3E50;stroke-width:0.5;"/><text fill="#000000" font-family="sans-serif" font-size="12" lengthAdjust="spacing" textLength="127.8691" x="137.0103" y="1043.9512">Objectives Fully Met?</text><text fill="#000000" font-family="sans-serif" font-size="11" lengthAdjust="spacing" textLength="14.9585" x="276.8794" y="1037.2026">No</text><path d="M335.4644,1068.6484 L335.4644,1084.7813 L315.4644,1088.7813 L335.4644,1092.7813 L335.4644,1108.9141 A0,0 0 0 0 335.4644,1108.9141 L564.2485,1108.9141 A0,0 0 0 0 564.2485,1108.9141 L564.2485,1078.6484 L554.2485,1068.6484 L335.4644,1068.6484 A0,0 0 0 0 335.4644,1068.6484" fill="#FEFFDD" style="stroke:#181818;stroke-width:0.5;"/><path d="M554.2485,1068.6484 L554.2485,1078.6484 L564.2485,1078.6484 L554.2485,1068.6484" fill="#FEFFDD" style="stroke:#181818;stroke-width:0.5;"/><text fill="#000000" font-family="sans-serif" font-size="13" lengthAdjust="spacing" textLength="200.4907" x="341.4644" y="1085.7153">Documentation, walkthroughs,</text><text fill="#000000" font-family="sans-serif" font-size="13" lengthAdjust="spacing" textLength="207.7842" x="341.4644" y="1100.8481">and enablement of client teams</text><rect fill="#F9FAFB" height="33.9688" rx="12.5" ry="12.5" style="stroke:#2C3E50;stroke-width:0.5;" width="229.0391" x="86.4253" y="1071.7969"/><text fill="#000000" font-family="sans-serif" font-size="12" lengthAdjust="spacing" textLength="209.0391" x="96.4253" y="1092.9355">Knowledge Transfer &amp; Enablement</text><path d="M316.1782,1125.7656 L316.1782,1141.8984 L296.1782,1145.8984 L316.1782,1149.8984 L316.1782,1166.0313 A0,0 0 0 0 316.1782,1166.0313 L567.0649,1166.0313 A0,0 0 0 0 567.0649,1166.0313 L567.0649,1135.7656 L557.0649,1125.7656 L316.1782,1125.7656 A0,0 0 0 0 316.1782,1125.7656" fill="#FEFFDD" style="stroke:#181818;stroke-width:0.5;"/><path d="M557.0649,1125.7656 L557.0649,1135.7656 L567.0649,1135.7656 L557.0649,1125.7656" fill="#FEFFDD" style="stroke:#181818;stroke-width:0.5;"/><text fill="#000000" font-family="sans-serif" font-size="13" lengthAdjust="spacing" textLength="229.8867" x="322.1782" y="1142.8325">Capture feedback, lessons learned,</text><text fill="#000000" font-family="sans-serif" font-size="13" lengthAdjust="spacing" textLength="206.6606" x="322.1782" y="1157.9653">and improvement opportunities</text><rect fill="#F9FAFB" height="33.9688" rx="12.5" ry="12.5" style="stroke:#2C3E50;stroke-width:0.5;" width="190.4668" x="105.7114" y="1128.9141"/><text fill="#000000" font-family="sans-serif" font-size="12" lengthAdjust="spacing" textLength="170.4668" x="115.7114" y="1150.0527">Post-Engagement Reflection</text><ellipse cx="200.9448" cy="1197.0313" fill="none" rx="11" ry="11" style="stroke:#222222;stroke-width:1;"/><ellipse cx="200.9448" cy="1197.0313" fill="#222222" rx="6" ry="6" style="stroke:#222222;stroke-width:1;"/><line style="stroke:#2C3E50;stroke-width:1;" x1="200.9448" x2="200.9448" y1="67.2969" y2="87.2969"/><polygon fill="#2C3E50" points="196.9448,77.2969,200.9448,87.2969,204.9448,77.2969,200.9448,81.2969" style="stroke:#2C3E50;stroke-width:1;"/><line style="stroke:#2C3E50;stroke-width:1;" x1="200.9448" x2="200.9448" y1="121.2656" y2="152.6953"/><polygon fill="#2C3E50" points="196.9448,142.6953,200.9448,152.6953,204.9448,142.6953,200.9448,146.6953" style="stroke:#2C3E50;stroke-width:1;"/><line style="stroke:#2C3E50;stroke-width:1;" x1="314.2832" x2="314.2832" y1="292.9141" y2="312.9141"/><polygon fill="#2C3E50" points="310.2832,302.9141,314.2832,312.9141,318.2832,302.9141,314.2832,306.9141" style="stroke:#2C3E50;stroke-width:1;"/><line style="stroke:#2C3E50;stroke-width:1;" x1="155.9038" x2="87.6064" y1="236.9453" y2="236.9453"/><line style="stroke:#2C3E50;stroke-width:1;" x1="87.6064" x2="87.6064" y1="236.9453" y2="258.9453"/><polygon fill="#2C3E50" points="83.6064,248.9453,87.6064,258.9453,91.6064,248.9453,87.6064,252.9453" style="stroke:#2C3E50;stroke-width:1;"/><line style="stroke:#2C3E50;stroke-width:1;" x1="245.9858" x2="314.2832" y1="236.9453" y2="236.9453"/><line style="stroke:#2C3E50;stroke-width:1;" x1="314.2832" x2="314.2832" y1="236.9453" y2="258.9453"/><polygon fill="#2C3E50" points="310.2832,248.9453,314.2832,258.9453,318.2832,248.9453,314.2832,252.9453" style="stroke:#2C3E50;stroke-width:1;"/><line style="stroke:#2C3E50;stroke-width:1;" x1="87.6064" x2="87.6064" y1="292.9141" y2="339.9141"/><line style="stroke:#2C3E50;stroke-width:1;" x1="87.6064" x2="200.9448" y1="339.9141" y2="339.9141"/><line style="stroke:#2C3E50;stroke-width:1;" x1="200.9448" x2="200.9448" y1="339.9141" y2="354.9141"/><polygon fill="#2C3E50" points="196.9448,344.9141,200.9448,354.9141,204.9448,344.9141,200.9448,348.9141" style="stroke:#2C3E50;stroke-width:1;"/><line style="stroke:#2C3E50;stroke-width:1;" x1="200.9448" x2="200.9448" y1="186.6641" y2="224.9453"/><polygon fill="#2C3E50" points="196.9448,214.9453,200.9448,224.9453,204.9448,214.9453,200.9448,218.9453" style="stroke:#2C3E50;stroke-width:1;"/><line style="stroke:#2C3E50;stroke-width:1;" x1="200.9448" x2="200.9448" y1="441.1641" y2="479.4453"/><polygon fill="#2C3E50" points="196.9448,469.4453,200.9448,479.4453,204.9448,469.4453,200.9448,473.4453" style="stroke:#2C3E50;stroke-width:1;"/><line style="stroke:#2C3E50;stroke-width:1;" x1="200.9448" x2="200.9448" y1="513.4141" y2="564.8438"/><polygon fill="#2C3E50" points="196.9448,554.8438,200.9448,564.8438,204.9448,554.8438,200.9448,558.8438" style="stroke:#2C3E50;stroke-width:1;"/><line style="stroke:#2C3E50;stroke-width:1;" x1="200.9448" x2="200.9448" y1="598.8125" y2="637.0938"/><polygon fill="#2C3E50" points="196.9448,627.0938,200.9448,637.0938,204.9448,627.0938,200.9448,631.0938" style="stroke:#2C3E50;stroke-width:1;"/><line style="stroke:#2C3E50;stroke-width:1;" x1="200.9448" x2="200.9448" y1="378.9141" y2="407.1953"/><polygon fill="#2C3E50" points="196.9448,397.1953,200.9448,407.1953,204.9448,397.1953,200.9448,401.1953" style="stroke:#2C3E50;stroke-width:1;"/><line style="stroke:#2C3E50;stroke-width:1;" x1="313.02" x2="616.9639" y1="703.0625" y2="703.0625"/><polygon fill="#2C3E50" points="612.9639,536.5625,616.9639,526.5625,620.9639,536.5625,616.9639,532.5625" style="stroke:#2C3E50;stroke-width:1;"/><line style="stroke:#2C3E50;stroke-width:1;" x1="616.9639" x2="616.9639" y1="366.9141" y2="703.0625"/><line style="stroke:#2C3E50;stroke-width:1;" x1="616.9639" x2="212.9448" y1="366.9141" y2="366.9141"/><polygon fill="#2C3E50" points="222.9448,362.9141,212.9448,366.9141,222.9448,370.9141,218.9448,366.9141" style="stroke:#2C3E50;stroke-width:1;"/><line style="stroke:#2C3E50;stroke-width:1;" x1="200.9448" x2="200.9448" y1="671.0625" y2="691.0625"/><polygon fill="#2C3E50" points="196.9448,681.0625,200.9448,691.0625,204.9448,681.0625,200.9448,685.0625" style="stroke:#2C3E50;stroke-width:1;"/><line style="stroke:#2C3E50;stroke-width:1;" x1="200.9448" x2="200.9448" y1="715.0625" y2="743.3438"/><polygon fill="#2C3E50" points="196.9448,733.3438,200.9448,743.3438,204.9448,733.3438,200.9448,737.3438" style="stroke:#2C3E50;stroke-width:1;"/><line style="stroke:#2C3E50;stroke-width:1;" x1="200.9448" x2="200.9448" y1="893.5625" y2="916.7109"/><polygon fill="#2C3E50" points="196.9448,906.7109,200.9448,916.7109,204.9448,906.7109,200.9448,910.7109" style="stroke:#2C3E50;stroke-width:1;"/><line style="stroke:#2C3E50;stroke-width:1;" x1="200.9448" x2="200.9448" y1="950.6797" y2="973.8281"/><polygon fill="#2C3E50" points="196.9448,963.8281,200.9448,973.8281,204.9448,963.8281,200.9448,967.8281" style="stroke:#2C3E50;stroke-width:1;"/><line style="stroke:#2C3E50;stroke-width:1;" x1="200.9448" x2="200.9448" y1="839.5938" y2="859.5938"/><polygon fill="#2C3E50" points="196.9448,849.5938,200.9448,859.5938,204.9448,849.5938,200.9448,853.5938" style="stroke:#2C3E50;stroke-width:1;"/><line style="stroke:#2C3E50;stroke-width:1;" x1="276.8794" x2="546.144" y1="1039.7969" y2="1039.7969"/><polygon fill="#2C3E50" points="542.144,940.5469,546.144,930.5469,550.144,940.5469,546.144,936.5469" style="stroke:#2C3E50;stroke-width:1;"/><line style="stroke:#2C3E50;stroke-width:1;" x1="546.144" x2="546.144" y1="827.5938" y2="1039.7969"/><line style="stroke:#2C3E50;stroke-width:1;" x1="546.144" x2="212.9448" y1="827.5938" y2="827.5938"/><polygon fill="#2C3E50" points="222.9448,823.5938,212.9448,827.5938,222.9448,831.5938,218.9448,827.5938" style="stroke:#2C3E50;stroke-width:1;"/><line style="stroke:#2C3E50;stroke-width:1;" x1="200.9448" x2="200.9448" y1="1007.7969" y2="1027.7969"/><polygon fill="#2C3E50" points="196.9448,1017.7969,200.9448,1027.7969,204.9448,1017.7969,200.9448,1021.7969" style="stroke:#2C3E50;stroke-width:1;"/><line style="stroke:#2C3E50;stroke-width:1;" x1="200.9448" x2="200.9448" y1="777.3125" y2="815.5938"/><polygon fill="#2C3E50" points="196.9448,805.5938,200.9448,815.5938,204.9448,805.5938,200.9448,809.5938" style="stroke:#2C3E50;stroke-width:1;"/><line style="stroke:#2C3E50;stroke-width:1;" x1="200.9448" x2="200.9448" y1="1051.7969" y2="1071.7969"/><polygon fill="#2C3E50" points="196.9448,1061.7969,200.9448,1071.7969,204.9448,1061.7969,200.9448,1065.7969" style="stroke:#2C3E50;stroke-width:1;"/><line style="stroke:#2C3E50;stroke-width:1;" x1="200.9448" x2="200.9448" y1="1105.7656" y2="1128.9141"/><polygon fill="#2C3E50" points="196.9448,1118.9141,200.9448,1128.9141,204.9448,1118.9141,200.9448,1122.9141" style="stroke:#2C3E50;stroke-width:1;"/><line style="stroke:#2C3E50;stroke-width:1;" x1="200.9448" x2="200.9448" y1="1162.8828" y2="1186.0313"/><polygon fill="#2C3E50" points="196.9448,1176.0313,200.9448,1186.0313,204.9448,1176.0313,200.9448,1180.0313" style="stroke:#2C3E50;stroke-width:1;"/><?plantuml-src VLNBZXit4BpFLpGG85W34fmuo27QGw3L0zaawrruam0vSidM32sAdF2XXuFyUuh3MMd6Cgo303MRtLNLrLJKqJ3TH_R2whIZHGhHxTZJhovvooUQbiEezqmhMukQTsmZFJZ5fgh2LjjMUB6Z5o6tjNV9geKppjCtw-upo10IHNGyqRyLqTrL-a_h-VekdpYlsFVHTuiVLZz-X-ZQsVYiFp5z_wxwRr1qxhqxZ9ClX_dIUx5ZP6cHqKRXOrNDxgsE2D02vq15R-dU_fEqFzrMraKch-icLWkZCrFHjju9sN2uo5GTT6n8a6o4CMnhdf1MB2O46BL3AxQASYaqoqtu6EbF2rf0O9MsDNrBQnrfgODC8MXdHvr_mVVKy9uDgNC6HKVfN6DMJUak1Mqv19Ab1K9FthqOtb5eXMJyVaWnWIWVMvOHGtGs3B3f3Ttq6K3pynkA3Lkw-Pl36qW-6uoxA1Oxe6m2qyrxr-MWuHxKmSIZGuRvbfOi3O0Dx7ABLFYgpRtrfgeyjonYVrzc2f-hiqZUu-Bq6QYP7Z04n7EPWKmqi6OQtNUR6Ku72hMb3OSk_DXsrvm5SMWNeXVQndAsEkeGSut8ih4mLgsxMnVL2kfEvZLSLl0-ldpC_87a0s_GyvNr2EuvAH20KaYouowz1WyjaE6xouf4-8oHte72_Xh9ipEfatrrRB447Il0MNBGjVsANZn8VrMhN2BN5f_aqDpB1k1aJ1vQNLQXE_p32yLJjzaKEbw7xHM-Vea-y5xp8RkUMUMduhRt01qQZGVevhaH7hp7DfYZERP0mPaw5CjLiqV0sm7Ct01iPyudfxiM6PdwuWe3qUM92xaLIIDyVeoSdGtsHcNzTUQFuA9n0VkWNgsDq6_M7R29P-A3PRfuUia64liJFHbXRV77wiWobVtvoapw7ChF2ux0HsxRpAueBDH7FC-PyvNEVmcZrUlqVsVXxPVsfSzYSYbAFFCeMyFw8P-9scCsvCOUDNsfguRpCnOq77f-FDU1vTV9c1CzS1oDCojgMDMSxMJ31dyzKCkAF8wkte30qicKWntF2Hs4sSO6Vo9r4oPLHildUp0rHjnDFxBO3GSrUt8XJWUF6z2RCk6nUKGBspDjUijE84O8s8mY2glIiz_CqhHjdOyfEuY7BVFRzpy0?></g></svg>